<!-- Alésage à l'alésoir : classeur « Exercice M10 - tournage - vc seulement - version étudiant_r0.xlsm », feuille « Avances d'usinage », Group 4 › Group 36. Généré par reference/pictogrammes-du-classeur/convertir.mjs : ne pas retoucher à la main. -->
<svg xmlns="http://www.w3.org/2000/svg" viewBox="0 0 26.97 23.95" fill="none" stroke-linecap="butt" stroke-linejoin="miter" stroke-miterlimit="8">
  <path d="M6.26 16.24L3.82 16L1.36 13.62L1 10.12" fill="#FFC000" stroke="#2F528F" stroke-width="1"/>
  <path d="M1.39 2.9L1.39 10.78L6.23 16.04L21.74 16.16L26.22 10.55L26.22 2.42" fill="#00B0F0" stroke="#000000" stroke-width="0.5"/>
  <path d="M1.51 2.82C3.65 2.06 6.2 1.31 8.26 1.27C10.32 1.23 11.81 1.98 13.87 2.58C15.93 3.19 18.56 4.84 20.62 4.89C22.68 4.94 25.81 4.15 26.22 2.9" fill="#00B0F0" stroke="#000000" stroke-width="0.5"/>
  <path d="M3.55 3.9L3.54 8.46" stroke="#000000" stroke-width="0.5"/>
  <path d="M3.53 11.13L1.54 7.13L3.54 8.46L5.54 7.13Z" fill="#000000"/>
  <path d="M3.4 23.2L3.4 19.18" stroke="#000000" stroke-width="0.5"/>
  <path d="M3.4 16.51L5.4 20.51L3.4 19.18L1.4 20.51Z" fill="#000000"/>
  <path d="M13.99 2.66C16.79 1.55 19.7 0.73 21.74 0.75C23.78 0.77 25.68 0.91 26.22 2.78" fill="#00B0F0" stroke="#000000" stroke-width="0.5"/>
  <path d="M6.84 10.55L26.22 10.55" stroke="#000000" stroke-width="0.5"/>
</svg>
