<!-- Chanfreinage : classeur « Exercice M10 - tournage - vc seulement - version étudiant_r0.xlsm », feuille « Avances d'usinage », Group 4 › Group 38. Généré par reference/pictogrammes-du-classeur/convertir.mjs : ne pas retoucher à la main. -->
<svg xmlns="http://www.w3.org/2000/svg" viewBox="0 0 25.85 25.75" fill="none" stroke-linecap="butt" stroke-linejoin="miter" stroke-miterlimit="8">
  <path d="M9.28 18.4L6.72 18.4L3.54 15.53L3.29 12.39" fill="#FFC000" stroke="#000019" stroke-width="1"/>
  <path d="M25.09 2.63L25.09 10.42L13.1 22.4L0.87 10.42L0.87 2.63" fill="#00B0F0" stroke="#000000" stroke-width="0.5"/>
  <path d="M5.48 5.53L5.55 10.81" stroke="#000000" stroke-width="0.5"/>
  <path d="M5.58 13.48L3.53 9.5L5.55 10.81L7.53 9.45Z" fill="#000000"/>
  <path d="M5.6 25L5.55 20.98" stroke="#000000" stroke-width="0.5"/>
  <path d="M5.52 18.32L7.57 22.29L5.55 20.98L3.57 22.34Z" fill="#000000"/>
  <path d="M0.75 2.82C2.85 2.06 5.35 1.31 7.37 1.27C9.39 1.23 10.85 1.98 12.87 2.58C14.88 3.19 17.47 4.84 19.49 4.89C21.51 4.94 24.58 4.15 24.98 2.9" stroke="#000000" stroke-width="0.5"/>
  <path d="M12.87 2.66C15.67 1.55 18.58 0.73 20.62 0.75C22.66 0.77 24.56 0.91 25.1 2.78" stroke="#000000" stroke-width="0.5"/>
  <path d="M25.09 10.42L8.22 10.42" stroke="#000000" stroke-width="0.5"/>
</svg>
