<!-- Contournage ébauche : classeur « Exercice M10 - tournage - vc seulement - version étudiant_r0.xlsm », feuille « Avances d'usinage », Group 4 › Group 54. Généré par reference/pictogrammes-du-classeur/convertir.mjs : ne pas retoucher à la main. -->
<svg xmlns="http://www.w3.org/2000/svg" viewBox="0 0 35 24.95" fill="none" stroke-linecap="butt" stroke-linejoin="miter" stroke-miterlimit="8">
  <path d="M26.8 12.01C26.83 15.26 25.5 18.39 23.1 20.65C20.71 22.9 17.47 24.09 14.15 23.93L14.28 21.38C16.9 21.51 19.45 20.57 21.33 18.8C23.22 17.03 24.27 14.58 24.24 12.03Z" fill="#FFC000" stroke="#000000" stroke-width="1"/>
  <path d="M24.52 12.38C24.52 5.96 19.2 0.75 12.64 0.75C6.07 0.75 0.75 5.96 0.75 12.38C0.75 18.8 6.07 24.01 12.64 24.01C19.2 24.01 24.52 18.8 24.52 12.38Z" fill="#00B0F0" stroke="#000000" stroke-width="0.5"/>
  <path d="M16.78 12.35L20.48 12.43" stroke="#000000" stroke-width="0.5"/>
  <path d="M23.15 12.48L19.11 14.4L20.48 12.43L19.19 10.4Z" fill="#000000"/>
  <path d="M34.25 12.34L30.54 12.41" stroke="#000000" stroke-width="0.5"/>
  <path d="M27.88 12.47L31.83 10.39L30.54 12.41L31.92 14.38Z" fill="#000000"/>
</svg>
