<!-- Perçage : classeur « Exercice M10 - tournage - vc seulement - version étudiant_r0.xlsm », feuille « Avances d'usinage », Group 4 › Group 39. Généré par reference/pictogrammes-du-classeur/convertir.mjs : ne pas retoucher à la main. -->
<svg xmlns="http://www.w3.org/2000/svg" viewBox="0 0 25.85 23.36" fill="none" stroke-linecap="butt" stroke-linejoin="miter" stroke-miterlimit="8">
  <path d="M12.92 16.73L10.35 16.73L1.72 12.44L1.11 10.25" fill="#FFC000" stroke="#000019" stroke-width="1"/>
  <path d="M25.09 2.63L25.09 10.42L12.86 16.43L0.87 10.42L0.87 2.63" fill="#00B0F0" stroke="#000000" stroke-width="0.5"/>
  <path d="M6.32 4.1L6.39 9.38" stroke="#000000" stroke-width="0.5"/>
  <path d="M6.43 12.04L4.38 8.07L6.39 9.38L8.38 8.02Z" fill="#000000"/>
  <path d="M6.44 22.61L6.4 18.59" stroke="#000000" stroke-width="0.5"/>
  <path d="M6.37 15.93L8.42 19.9L6.4 18.59L4.42 19.95Z" fill="#000000"/>
  <path d="M0.75 2.82C2.85 2.06 5.35 1.31 7.37 1.27C9.39 1.23 10.85 1.98 12.87 2.58C14.88 3.19 17.47 4.84 19.49 4.89C21.51 4.94 24.58 4.15 24.98 2.9" stroke="#000000" stroke-width="0.5"/>
  <path d="M12.87 2.66C15.67 1.55 18.58 0.73 20.62 0.75C22.66 0.77 24.56 0.91 25.1 2.78" stroke="#000000" stroke-width="0.5"/>
  <path d="M9.37 10.42L25.09 10.42" stroke="#000000" stroke-width="0.5"/>
  <path d="M0.87 10.42L4 10.42" stroke="#000000" stroke-width="0.5"/>
</svg>
