<!-- Pointage : classeur « Exercice M10 - tournage - vc seulement - version étudiant_r0.xlsm », feuille « Avances d'usinage », Group 4 › Group 35. Généré par reference/pictogrammes-du-classeur/convertir.mjs : ne pas retoucher à la main. -->
<svg xmlns="http://www.w3.org/2000/svg" viewBox="0 0 25.85 28.42" fill="none" stroke-linecap="butt" stroke-linejoin="miter" stroke-miterlimit="8">
  <path d="M12.99 21.87L10.43 21.87L7.25 19.03L7.01 15.91" fill="#FFC000" stroke="#000019" stroke-width="1"/>
  <path d="M25.09 2.6L25.09 10.28L13.1 22.07L0.87 10.28L0.87 2.6" fill="#00B0F0" stroke="#000000" stroke-width="0.5"/>
  <path d="M8.46 8.97L8.53 14.13" stroke="#000000" stroke-width="0.5"/>
  <path d="M8.57 16.8L6.52 12.83L8.53 14.13L10.51 12.77Z" fill="#000000"/>
  <path d="M8.46 27.67L8.42 23.75" stroke="#000000" stroke-width="0.5"/>
  <path d="M8.39 21.09L10.44 25.06L8.42 23.75L6.44 25.11Z" fill="#000000"/>
  <path d="M0.75 2.79C2.85 2.04 5.35 1.3 7.37 1.26C9.39 1.22 10.85 1.96 12.87 2.55C14.88 3.15 17.47 4.78 19.49 4.83C21.51 4.88 24.58 4.1 24.98 2.87" stroke="#000000" stroke-width="0.5"/>
  <path d="M12.87 2.63C15.67 1.53 18.58 0.73 20.62 0.75C22.66 0.77 24.56 0.91 25.1 2.75" stroke="#000000" stroke-width="0.5"/>
  <path d="M25.09 10.28L11.42 10.37" stroke="#000000" stroke-width="0.5"/>
  <path d="M7.74 10.5L0.87 10.49" stroke="#000000" stroke-width="0.5"/>
</svg>
