<!-- Taraudage : classeur « Exercice M10 - tournage - vc seulement - version étudiant_r0.xlsm », feuille « Avances d'usinage », Group 4 › Group 169. Généré par reference/pictogrammes-du-classeur/convertir.mjs : ne pas retoucher à la main. -->
<svg xmlns="http://www.w3.org/2000/svg" viewBox="0 0 21.2 23.16" fill="none" stroke-linecap="butt" stroke-linejoin="miter" stroke-miterlimit="8">
  <path d="M13.04 2C14.25 1.27 15.52 0.74 16.4 0.75C17.28 0.76 18.11 0.85 18.34 2.07" stroke="#000000" stroke-width="0.5"/>
  <path d="M2.52 0.76L2.6 6.41" stroke="#000000" stroke-width="0.5"/>
  <path d="M2.64 9.08L0.59 5.1L2.6 6.41L4.58 5.05Z" fill="#000000"/>
  <path d="M2.53 19.14L2.48 14.81" stroke="#000000" stroke-width="0.5"/>
  <path d="M2.45 12.14L4.5 16.12L2.48 14.81L0.5 16.17Z" fill="#000000"/>
  <path d="M18.33 2L18.33 8.04L20.36 9.34L18.28 10.69L20.4 11.99L18.23 13.39L20.45 14.51L20.36 14.83L18.19 15.95L19.88 17.11L19.7 17.9L18.28 18.69L19.08 19.16L18.66 21.06L18.05 21.16L17.67 22.36L7.9 22.41L7.34 20.23L7.95 19.9L7.01 19.57L6.63 18.18L7.9 17.39L6.21 16.46L6.07 15.85L7.9 14.64L5.4 13.34L7.72 11.95L5.31 10.6L7.81 8.97C7.84 6.65 7.87 4.32 7.9 2" fill="#00B0F0" stroke="#000000" stroke-width="0.5"/>
  <path d="M7.81 1.99C8.71 1.49 9.79 0.99 10.66 0.96C11.53 0.94 12.16 1.43 13.03 1.83C13.9 2.23 15.02 3.33 15.89 3.36C16.76 3.4 18.09 2.87 18.26 2.04" stroke="#000000" stroke-width="0.5"/>
  <path d="M7.81 9.02L5.31 10.55L7.72 11.99" fill="#FFC000" stroke="#000000" stroke-width="1"/>
</svg>
